# xmcd CD database file
#
# Track frame offsets:
#	150
#	18682
#	41130
#	64740
#	88365
#	109875
#	134055
#	156992
#	181722
#	199077
#	222347
#
# Disc length: 3255 seconds
#
# Revision: 0
# Processed by: cddbd v1.4PL0 Copyright (c) Steve Scherf et al.
# Submitted via: CDex 1.50beta10
#
DISCID=a90cb50b
DTITLE=Larose - AmericaLatina
DYEAR=2002
DGENRE=Salsa
TTITLE0=La Fiesta
TTITLE1=Junto a Ti
TTITLE2=Americalatina
TTITLE3=Vete Vete
TTITLE4=Estoy Solito
TTITLE5=Celebracion
TTITLE6=los Musicos
TTITLE7=Los ninos
TTITLE8=Chica Loca
TTITLE9=Loco Por Ti
TTITLE10=Fruta Fresca
EXTD=YEAR: 2002
EXTT0=
EXTT1=
EXTT2=
EXTT3=
EXTT4=
EXTT5=
EXTT6=
EXTT7=
EXTT8=
EXTT9=
EXTT10=
PLAYORDER=
